<svg width="120" height="30" viewBox="0 0 120 30" fill="none" xmlns="http://www.w3.org/2000/svg">
  <path d="M93.4112 13.0224C92.9627 13.8187 92.082 14.2178 90.7675 14.2178H88.5444L88.5403 14.2209H87.8729V13.5172V6.30432V5.6029H88.5444H89.6653H90.7675C91.9987 5.6029 92.8575 6.00949 93.3477 6.81966C93.8368 7.63133 94.0826 8.66699 94.0826 9.93099C94.0826 11.1949 93.8576 12.2264 93.4112 13.0224ZM97.6065 3.13048C96.8238 2.30634 95.8578 1.67526 94.7109 1.23476C93.5651 0.796247 92.2506 0.574748 90.7675 0.574748H82.0396V29.4227H87.8729V21.8587V19.9872V19.2841H88.5413L88.5444 19.2876H90.7675C92.2206 19.2876 93.5163 19.0664 94.6495 18.6254C95.7811 18.1875 96.7466 17.562 97.544 16.7523C98.3415 15.942 98.9494 14.9595 99.3695 13.8057C99.789 12.6506 99.9983 11.3738 99.9983 9.9721C99.9983 8.54427 99.7956 7.25268 99.3913 6.09829C98.9845 4.94439 98.3892 3.95612 97.6065 3.13048"/>
  <path d="M119.434 18.7302C119.056 17.8634 118.558 17.1021 117.943 16.4424C117.328 15.7828 116.63 15.1855 115.846 14.6494C115.062 14.1127 114.267 13.5577 113.454 12.9809C112.448 12.2945 111.608 11.724 110.938 11.2707C110.266 10.8166 109.727 10.406 109.322 10.0334C108.915 9.66375 108.635 9.30556 108.482 8.96204C108.329 8.61906 108.252 8.19951 108.252 7.70712C108.252 7.37586 108.3 7.04012 108.399 6.6959C108.496 6.35367 108.651 6.04337 108.859 5.76949C109.069 5.49411 109.336 5.26762 109.657 5.08752C109.978 4.90993 110.377 4.82063 110.852 4.82063C111.804 4.82063 112.532 5.16535 113.035 5.8518C113.538 6.53825 113.791 7.47165 113.791 8.65348H119.538C119.538 7.2252 119.307 5.96804 118.846 4.88299C118.384 3.79843 117.756 2.89797 116.958 2.18358C116.161 1.46969 115.244 0.926909 114.21 0.554749C113.174 0.184584 112.085 0 110.938 0C109.705 0 108.568 0.192068 107.516 0.574705C106.469 0.960834 105.565 1.51009 104.811 2.22448C104.056 2.93887 103.468 3.78995 103.049 4.77972C102.629 5.76948 102.419 6.85354 102.419 8.03488C102.419 9.13489 102.574 10.0751 102.882 10.8578C103.189 11.6425 103.629 12.3499 104.203 12.9809C104.775 13.613 105.455 14.2177 106.238 14.7948C107.02 15.37 107.887 15.9887 108.839 16.648C109.455 17.0884 110.07 17.4937 110.685 17.8634C111.3 18.2362 111.839 18.6133 112.3 18.9972C112.762 19.3834 113.14 19.8073 113.434 20.2756C113.727 20.7423 113.875 21.2928 113.875 21.924C113.875 22.8306 113.629 23.5923 113.14 24.2098C112.651 24.828 111.959 25.1388 111.063 25.1388C110.168 25.1388 109.391 24.828 108.734 24.2098C108.078 23.5923 107.748 22.638 107.748 21.3474H101.874C101.874 22.7752 102.105 24.0327 102.567 25.1183C103.029 26.2015 103.671 27.1029 104.496 27.8174C105.322 28.5312 106.292 29.0739 107.413 29.4435C108.531 29.8162 109.746 29.9999 111.063 29.9999C112.349 29.9999 113.544 29.8162 114.65 29.4435C115.755 29.0739 116.698 28.5386 117.483 27.8376C118.266 27.1368 118.881 26.2776 119.328 25.2616C119.775 24.2453 120 23.1053 120 21.8408C120 20.6332 119.811 19.5955 119.434 18.7302"/>
  <path d="M49.1048 13.0224C48.6569 13.8187 47.775 14.2178 46.461 14.2178H44.2375L44.2345 14.2209H43.567V13.5172V6.30432V5.6029H44.2375H45.3589H46.461C47.6927 5.6029 48.5522 6.00949 49.0413 6.81966C49.5299 7.63133 49.7764 8.66699 49.7764 9.93099C49.7764 11.1949 49.5512 12.2264 49.1048 13.0224ZM53.3003 3.13048C52.5171 2.30634 51.552 1.67526 50.4059 1.23476C49.2581 0.796247 47.9431 0.574748 46.461 0.574748H37.7349V29.4227H43.567V21.8587V19.9872V19.2841H44.2345L44.2375 19.2876H46.461C47.9153 19.2876 49.2099 19.0664 50.3424 18.6254C51.4758 18.1875 52.4399 17.562 53.2373 16.7523C54.0352 15.942 54.6427 14.9595 55.0627 13.8057C55.4822 12.6506 55.692 11.3738 55.692 9.9721C55.692 8.54427 55.4888 7.25268 55.083 6.09829C54.6772 4.94439 54.0824 3.95612 53.3003 3.13048"/>
  <!-- Add remaining <path> tags from your original code here if any -->
</svg>
